<svg xmlns="http://www.w3.org/2000/svg" viewBox="0 0 320 240">
  <path d="M160 120c-10-22-46-58-78-58-24 0-42 18-42 42 0 42 56 54 86 34-14 26-50 26-66 8-10-12-10-30 4-42 22-18 64 6 76 16z" fill="#ff3b30" opacity=".9"/>
  <path d="M160 120c10-22 46-58 78-58 24 0 42 18 42 42 0 42-56 54-86 34 14 26 50 26 66 8 10-12 10-30-4-42-22-18-64 6-76 16z" fill="#ff9500" opacity=".9"/>
  <path d="M160 120c-6 22-28 60-56 60-18 0-32-14-32-32 0-30 38-40 56-24-10 16-30 18-40 8-6-6-6-16 2-22 12-10 34 2 44 10z" fill="#ffd166" opacity=".95"/>
  <path d="M160 120c6 22 28 60 56 60 18 0 32-14 32-32 0-30-38-40-56-24 10 16 30 18 40 8 6-6 6-16-2-22-12-10-34 2-44 10z" fill="#4ade80" opacity=".95"/>
  <path d="M160 98c10 18 10 46 0 64" stroke="#3f3f46" stroke-width="6" stroke-linecap="round"/>
  <circle cx="156" cy="88" r="6" fill="#3f3f46"/>
  <circle cx="164" cy="88" r="6" fill="#3f3f46"/>
</svg>
